<?xml version="1.0" standalone="no"?>
<!DOCTYPE svg PUBLIC "-//W3C//DTD SVG 1.1//EN" "http://www.w3.org/Graphics/SVG/1.1/DTD/svg11.dtd" >
<svg xmlns="http://www.w3.org/2000/svg">
<metadata>Generated by IcoMoon</metadata>
<defs>
<font id="icomoon" horiz-adv-x="1024">
<font-face units-per-em="1024" ascent="960" descent="-64" />
<missing-glyph horiz-adv-x="1024" />
<glyph unicode="&#x20;" horiz-adv-x="512" d="" />
<glyph unicode="&#xe900;" horiz-adv-x="996" d="M586.473-66.327c13.033 20.945 25.6 42.356 39.098 62.836 2.793 4.189 9.076 5.818 13.964 8.844 1.164-4.655 2.327-9.542 3.258-14.196 0.233-0.698 0.465-1.396 0.931-1.862 16.756 10.705 30.022 24.436 37.236 43.055 5.353 13.731 8.844 28.16 14.662 41.658 10.938 26.065 22.807 51.433 34.444 77.265 0.698 1.629 2.095 4.189 3.491 4.422 17.92 4.189 11.869 23.738 21.411 33.28 0.698 0.698-1.862 5.353-3.724 7.68-1.862 2.095-4.655 3.491-10.24 7.68 9.309 1.862 15.36 3.491 21.411 4.189 7.913 0.931 13.498 9.309 10.938 16.524-1.396 4.189-2.56 8.611-4.189 14.662-12.102-5.585-29.324-4.189-30.487-26.065-9.542 11.869-17.687 22.109-28.16 35.142-7.913 3.025-14.196-5.818-19.316-11.636-2.56 5.585-5.585 10.705-7.447 16.291-2.793 9.076-5.818 18.153-6.982 27.695-3.025 21.876 6.982 44.916-6.749 63.767 4.189 4.887 8.145 8.378 10.473 12.567 3.258 6.284 5.353 13.498 8.145 20.015 2.793 6.749 8.844 13.498 8.378 20.015-1.396 22.575 18.153 41.193 11.171 64.465 11.171 24.902 0.233 51.2 5.353 76.8 0.931 4.189-3.724 9.542-5.12 14.429-0.931 3.724-1.164 7.68-0.931 11.636 0.698 13.033 1.862 25.833 2.095 38.633 0.233 4.422-1.862 8.844-2.56 13.265-4.189 33.28 0.465 68.655-20.015 98.676-8.844 13.033-17.92 25.6-26.531 38.633-2.095 3.258-4.887 7.447-4.422 10.938 3.491 33.513-10.473 59.113-38.167 75.171-22.109 13.033-39.564 30.72-57.716 47.942-0.931 0.698-1.629 1.862-2.56 2.327-3.724 1.629-7.68 4.189-11.636 4.422-10.705 0.465-20.247 1.629-23.273 14.429-0.465 1.862-2.793 3.956-4.887 4.655-13.033 4.655-26.065 11.869-39.564 13.265-43.753 4.189-87.505-0.233-130.56-8.611-23.505-4.655-46.545-11.869-69.585-18.618-7.913-2.327-15.825-6.284-22.807-10.938-3.025-2.095-6.284-9.309-4.887-11.404 7.447-12.102-3.258-13.964-9.076-18.851-5.12-4.422-10.705-8.378-14.429-13.731-5.818-9.775-8.145-20.015-0.931-29.789-1.862-1.396-2.56-2.56-3.491-3.025-17.222-7.215-16.524-7.215-14.429-27.229 0.698-5.818-3.258-12.102-5.585-18.153-2.327-5.585-6.051-10.705-7.68-16.524-1.862-6.284-1.396-13.033-3.025-19.316-6.982-24.669-2.793-48.873 3.724-72.844 1.396-5.585 6.284-13.265 4.422-16.058-5.818-7.913-0.931-13.964 0.465-20.713 4.655-20.48 9.076-40.727 13.498-61.207 0.233-1.396-0.698-3.025-0.698-4.422 0.698-17.92 1.164-35.84 2.095-53.527 0.233-2.327 3.025-4.422 3.956-6.982 3.258-7.913 6.051-16.291 9.542-24.204 4.887-10.938 10.007-21.644 16.291-34.676 1.164 4.189 1.862 5.353 1.862 6.516 0 46.545-0.233 93.091 7.913 139.171 3.956 22.342 5.585 45.382 11.636 67.025 3.724 13.033 12.102 26.996 22.575 34.909 12.567 9.309 29.789 12.567 45.149 17.92 4.655 1.629 10.007 1.862 14.895 1.396 16.524-1.629 33.047-4.422 49.571-5.818 7.215-0.698 15.593-1.629 21.644 1.396 7.913 4.189 14.662 3.258 22.109 1.164 10.007-2.793 19.782-5.818 29.556-9.076 8.378-2.56 16.756-5.353 25.135-8.145 12.335-4.422 24.204-10.24 36.771-13.265 14.429-3.491 16.058-6.516 6.516-18.851 5.585-4.887 6.516-9.775-0.698-14.895-2.095-1.396-2.095-6.749-2.095-10.24 0.233-7.447 0.931-14.895 1.396-22.109 0.233-1.862-0.233-4.189 0.931-5.585 6.051-8.611 11.869-17.222 18.385-25.367 7.913-9.775 7.215-13.731-4.189-19.084-11.171-5.353-22.575-9.775-33.28-15.825-18.153-10.24-35.607-21.411-53.76-31.884-5.585-3.258-7.215-6.284-5.353-13.033 6.749-26.065 14.895-51.898 13.498-79.593-0.233-5.585 1.396-11.869 3.956-16.756 15.825-28.625 1.862-42.822-15.593-66.327-4.422-6.051-9.542-6.284-15.825-1.164-11.869 9.309-20.48 7.215-30.255-6.051 5.353-8.844 13.731-9.542 23.040-8.844 18.851 1.396 34.909-5.585 48.64-17.687 10.938-9.775 7.68-30.022-6.051-34.444-15.593-4.887-32.116-9.542-48.407-10.007-17.455-0.698-35.142 3.491-52.596 5.353-5.353 0.465-10.705 0-16.291 0 1.164-3.956 2.56-5.585 4.189-5.818 29.789-6.749 59.811-12.102 89.135-20.713 14.429-4.189 26.298-2.095 39.331 2.327 0.465 0.233 1.396-0.698 4.887-2.327-8.844-4.655-16.058-11.636-23.505-11.869-17.687-0.931-35.607 1.164-53.295 1.862-0.233 0-0.698-1.164-1.862-3.258 3.025-1.396 5.818-3.025 8.844-4.189 15.36-5.353 17.92-13.498 8.611-26.996-4.887-7.215-2.793-10.007 5.585-11.171 15.36-1.862 30.72-4.189 45.847-7.215 20.48-4.189 23.971-12.8 11.636-28.625-15.36-20.015-33.28-36.073-61.44-32.582-1.396 0.233-3.025-0.465-4.422-0.931-20.945-5.818-35.84 7.447-32.116 29.091 2.56 15.36-2.327 26.764-14.196 33.047-2.095-3.258-4.189-6.516-6.284-9.542-9.309-13.731-20.247-13.731-28.625 0.465-3.258 5.585-6.516 11.636-8.145 17.92-3.491 13.964-10.938 23.505-24.436 28.625-4.655 1.862-8.378 5.585-14.662 9.775 6.051 2.095 8.844 3.025 11.869 3.956-0.233 1.164-0.465 2.095-0.698 3.258-4.887-1.164-10.938-1.164-14.429-3.956-3.724-3.025 2.095-24.902 5.12-27.927 6.749-6.516 13.731-13.033 19.316-20.48 2.095-2.793 1.629-9.076 0.233-12.8-5.353-12.335-12.102-15.36-26.065-13.498-16.058 2.095-21.644-2.095-28.625-15.825-3.025-5.818-10.473-9.542-16.291-13.498-2.793-1.862-6.516-2.327-12.567-4.422 15.593-9.309 28.858-12.8 43.52-9.542 14.895 3.258 22.109 10.473 23.971 27.695 9.775-2.793 19.549-4.887 28.393-8.844 3.491-1.629 6.982-7.913 7.215-12.102 0-25.833-0.931-51.665-1.396-77.498-0.233-7.68 0.233-15.36 1.164-23.040 2.327-24.204 4.887-48.407 7.447-72.611-65.164 0-130.327 0-195.491 0-7.913 20.945-15.36 41.891-23.738 62.604-3.491 8.844-5.818 16.756 5.585 24.436-6.051 2.327-10.24 4.422-14.429 5.12-8.378 1.629-16.756 3.025-25.135 3.491-4.422 0.233-8.844-2.095-13.265-3.258 1.862-3.724 2.793-8.378 5.585-11.171 14.196-13.731 14.895-15.36 7.447-28.858 3.724-5.585 10.705-11.869 9.542-15.36-4.422-13.033-2.793-24.902 1.629-37.236-37.935 0-76.102 0-114.036 0zM277.644 508.975c7.447-1.862 14.662-3.258 21.644-5.353 3.724-1.164 6.749-3.724 10.24-5.585-2.56-3.025-4.655-6.749-7.913-8.611-8.844-4.887-10.473-11.869-8.611-21.411 10.24 6.284 19.549 12.335 28.858 18.153 0.698-0.931 1.396-1.862 1.862-2.793-9.076-6.982-22.575-9.775-25.6-22.575 0.931-1.164 1.629-2.56 2.56-3.724 8.378 4.422 16.756 8.844 26.065 13.964 11.171-26.298 35.142-17.92 55.855-18.385 4.189 0 9.076 5.585 12.335 9.542 6.749 8.145 12.335 17.687 19.549 25.6 8.844 9.542 9.309 15.593-2.56 21.411-12.8 6.051-26.298 10.938-40.029 13.731-22.575 4.655-45.615 6.982-68.422 10.705-16.989 2.793-28.858-3.025-34.676-19.316-1.396-3.956 0.465-8.844 0.931-13.498 1.164 0 2.327 0 3.724 0 0.931 2.56 2.56 5.353 4.189 8.145zM168.029 16.524c15.825-5.818 31.651-9.775 46.545-0.698 5.818 3.491 12.8 10.473 13.498 16.524 0.931 9.076-7.447 14.196-17.222 16.756-6.051-22.109-18.851-35.142-42.822-32.582zM154.531 136.611c14.662-10.473 30.022-5.353 45.149-4.189 0 1.396 0 2.793 0 4.189-15.127 0-30.255 0-45.149 0zM235.055 187.113c9.076-15.593 15.127-17.455 30.953-10.24-7.68 10.24-18.851 7.68-30.953 10.24zM101.469 89.367c-8.145 6.051-13.265 10.007-18.385 13.964-1.396-0.698-2.56-1.629-3.956-2.327 2.095-6.051 4.189-12.102 6.284-18.153 4.422 1.862 8.844 3.491 16.058 6.516z" />
<glyph unicode="&#xe901;" horiz-adv-x="996" d="M358.4-66.327c-2.56 24.204-5.12 48.407-7.447 72.611-0.698 7.68-1.164 15.36-1.164 23.040 0.465 25.833 1.396 51.665 1.396 77.498 0 4.189-3.491 10.473-7.215 12.102-8.844 3.956-18.618 6.051-28.393 8.844-2.095-17.222-9.076-24.436-23.971-27.695s-28.16 0-43.52 9.542c6.051 2.095 9.775 2.56 12.567 4.422 5.818 3.956 13.265 7.68 16.291 13.498 6.982 13.731 12.567 17.92 28.625 15.825 13.964-1.862 20.713 1.164 26.065 13.498 1.629 3.724 1.862 9.775-0.233 12.8-5.585 7.447-12.335 13.964-19.316 20.48-3.258 3.025-8.844 24.902-5.12 27.927 3.491 2.793 9.542 2.793 14.429 3.956 0.233-1.164 0.465-2.095 0.698-3.258-2.793-0.931-5.818-1.862-11.869-3.956 6.284-4.189 10.007-7.913 14.662-9.775 13.498-5.12 21.178-14.662 24.436-28.625 1.629-6.284 4.887-12.335 8.145-17.92 8.378-13.964 19.316-14.196 28.625-0.465 2.095 3.258 4.189 6.284 6.284 9.542 11.869-6.284 16.989-17.687 14.196-33.047-3.491-21.644 11.171-34.909 32.116-29.091 1.396 0.465 3.025 0.931 4.422 0.931 28.16-3.724 45.847 12.567 61.44 32.582 12.335 15.825 8.844 24.436-11.636 28.625-15.127 3.025-30.487 5.12-45.847 7.215-8.378 1.164-10.473 3.956-5.585 11.171 9.309 13.731 6.749 21.644-8.611 26.996-3.025 1.164-5.818 2.793-8.844 4.189 1.164 2.095 1.396 3.258 1.862 3.258 17.687-0.698 35.607-2.793 53.295-1.862 7.447 0.465 14.662 7.215 23.505 11.869-3.491 1.862-4.422 2.56-4.887 2.327-12.8-4.422-24.902-6.516-39.331-2.327-29.091 8.611-59.345 13.964-89.135 20.713-1.629 0.465-3.025 1.862-4.189 5.818 5.353 0 10.938 0.465 16.291 0 17.455-1.862 35.142-6.051 52.596-5.353 16.291 0.698 32.582 5.12 48.407 10.007 13.731 4.189 16.989 24.669 6.051 34.444-13.731 12.102-29.789 19.084-48.64 17.687-9.309-0.698-17.687 0-23.040 8.844 9.542 13.265 18.385 15.36 30.255 6.051 6.284-5.12 11.404-4.887 15.825 1.164 17.455 23.505 31.651 37.702 15.593 66.327-2.793 4.887-4.422 11.171-3.956 16.756 1.629 27.695-6.749 53.527-13.498 79.593-1.629 6.749-0.233 9.775 5.353 13.033 17.92 10.473 35.607 21.644 53.76 31.884 10.705 6.051 22.109 10.473 33.28 15.825 11.404 5.585 11.869 9.309 4.189 19.084-6.516 8.145-12.567 16.756-18.385 25.367-0.931 1.396-0.698 3.724-0.931 5.585-0.465 7.447-1.396 14.895-1.396 22.109 0 3.491 0 8.611 2.095 10.24 7.447 5.12 6.284 9.775 0.698 14.895 9.542 12.102 7.68 15.127-6.516 18.851-12.567 3.258-24.436 8.844-36.771 13.265-8.378 3.025-16.756 5.585-25.135 8.145-9.775 3.025-19.549 6.284-29.556 9.076-7.447 2.095-14.196 3.025-22.109-1.164-5.818-3.025-14.429-2.095-21.644-1.396-16.524 1.629-33.047 4.189-49.571 5.818-4.887 0.465-10.24 0.233-14.895-1.396-15.36-5.353-32.582-8.611-45.149-17.92-10.473-7.68-18.851-21.876-22.575-34.909-6.284-21.644-7.68-44.684-11.636-67.025-8.145-46.080-7.913-92.625-7.913-139.171 0-1.164-0.465-2.095-1.862-6.516-6.051 13.033-11.404 23.738-16.291 34.676-3.491 7.913-6.051 16.058-9.542 24.204-0.931 2.56-3.956 4.655-3.956 6.982-0.931 17.92-1.629 35.84-2.095 53.527 0 1.396 0.931 3.025 0.698 4.422-4.422 20.48-9.076 40.727-13.498 61.207-1.396 6.749-6.284 12.8-0.465 20.713 2.095 2.793-2.793 10.473-4.422 16.058-6.516 23.971-10.473 48.175-3.724 72.844 1.629 6.284 1.164 13.033 3.025 19.316 1.629 5.818 5.585 10.938 7.68 16.524 2.327 5.818 6.284 12.335 5.585 18.153-2.095 20.015-2.793 19.782 14.429 27.229 0.931 0.465 1.862 1.396 3.491 3.025-6.982 9.775-4.887 20.015 1.396 28.858 3.724 5.353 9.309 9.309 14.429 13.731 5.818 4.887 16.524 6.982 9.076 18.851-1.396 2.095 1.862 9.309 4.887 11.404 6.982 4.655 14.895 8.611 22.807 10.938 23.040 6.749 46.080 13.964 69.585 18.618 43.055 8.611 86.807 12.8 130.56 8.611 13.498-1.396 26.298-8.378 39.564-13.265 1.862-0.698 4.422-2.793 4.887-4.655 3.025-12.8 12.567-13.964 23.273-14.429 3.956-0.233 7.68-2.793 11.636-4.422 0.931-0.465 1.629-1.629 2.56-2.327 18.153-17.222 35.607-34.909 57.716-47.942 27.695-16.291 41.658-41.891 38.167-75.171-0.465-3.491 2.327-7.68 4.422-10.938 8.611-13.033 17.92-25.833 26.531-38.633 20.48-30.022 15.593-65.164 20.015-98.676 0.465-4.422 2.56-8.844 2.56-13.265-0.465-13.033-1.629-25.833-2.095-38.633-0.233-3.956 0-7.913 0.931-11.636 1.396-4.887 5.818-10.007 5.12-14.429-4.887-25.367 5.818-51.898-5.353-76.8 7.215-23.273-12.335-41.891-11.171-64.465 0.465-6.516-5.585-13.265-8.378-20.015s-4.887-13.731-8.145-20.015c-2.327-4.189-6.284-7.68-10.473-12.567 13.731-18.851 3.724-41.891 6.749-63.767 1.396-9.309 4.189-18.618 6.982-27.695 1.862-5.585 4.887-10.705 7.447-16.291 5.12 6.051 11.404 14.895 19.316 11.636 10.473-13.033 18.618-23.273 28.16-35.142 1.164 21.644 18.153 20.48 30.487 26.065 1.629-5.818 2.793-10.24 4.189-14.662 2.56-7.215-3.025-15.593-10.938-16.524-6.051-0.698-12.102-2.327-21.411-4.189 5.585-4.189 8.378-5.585 10.24-7.68s4.422-6.982 3.724-7.68c-9.542-9.542-3.491-29.091-21.411-33.28-1.396-0.233-2.793-2.793-3.491-4.422-11.636-25.6-23.505-51.2-34.444-77.265-5.818-13.498-9.309-27.927-14.662-41.658-7.215-18.618-20.48-32.349-37.236-43.055-0.233 0.698-0.698 1.164-0.931 1.862-1.164 4.655-2.327 9.542-3.258 14.196-4.655-2.793-11.171-4.655-13.964-8.844-13.498-20.713-26.065-41.891-39.098-62.836-46.545 0-93.091 0-139.636 0-10.705 15.825-21.876 31.418-32.349 47.476-4.655 7.215-8.378 7.447-12.335 0.233-6.982-12.335-13.731-24.902-20.015-37.702-1.396-2.793-0.465-6.749-0.465-10.007-7.447 1.164-15.36 1.164-23.040 1.164zM583.913 371.433c-3.025 3.724-7.215 10.007 1.396 14.895 8.145 4.655 6.284 12.8 2.327 15.36-8.378 5.818-18.851 11.636-28.625 11.869-7.215 0.233-17.92-6.982-21.411-13.731-7.68-14.429-3.491-30.255 3.956-44.451 1.862-3.724 6.982-8.145 10.473-8.145 9.309 0 18.618 2.095 26.531 3.258 1.629 6.051 3.025 12.102 5.353 20.945zM605.324-16.756c-12.8 4.887-23.971 9.542-35.375 13.033-8.145 2.56-16.524 3.491-24.902 5.12 0.698-8.844 0.233-18.153 2.56-26.531 2.327-8.611 7.913-16.291 10.938-24.669 4.189-12.567 13.265-16.291 21.411-6.284 9.542 11.869 16.989 25.833 25.367 39.331zM369.571 58.88c0.931-8.145 1.396-18.385 3.258-28.625 0.465-2.793 3.724-5.585 6.516-6.982 1.396-0.698 5.818 1.396 6.284 3.025 6.749 18.851 13.498 37.935 3.491 57.716-1.629 3.258-6.749 7.68-8.611 6.982-3.724-1.164-7.913-5.353-8.844-9.076-1.862-6.749-1.396-13.964-2.095-23.040zM453.353 64.233c-0.233-13.731 8.145-34.909 15.36-40.495 3.491 14.662-1.164 26.996-15.36 40.495zM634.182 313.018c1.862-0.233 3.956-0.465 5.818-0.698 1.862 14.662 3.491 29.324 5.353 43.985-1.629 0.233-3.258 0.465-4.887 0.698-2.327-14.895-4.189-29.556-6.284-43.985zM546.909 455.68c0.233 1.164 0.233 2.327 0.465 3.724-3.025 1.629-7.68 5.12-9.076 4.422-3.724-2.793-6.051-7.447-8.844-11.171 0.698-0.931 1.396-1.629 2.095-2.56 5.353 1.629 10.473 3.491 15.36 5.585zM660.48 441.251c-1.629 0.233-3.491 0.465-5.12 0.698-0.465-10.24-1.164-20.713-1.629-30.953 1.164 0 2.327-0.233 3.491-0.233 0.931 10.007 2.095 20.247 3.258 30.487z" />
<glyph unicode="&#xe902;" horiz-adv-x="996" d="M116.364-66.327c-4.422 12.102-6.051 24.204-1.629 37.236 1.164 3.491-5.818 9.775-9.542 15.36 7.447 13.498 6.982 15.127-7.447 28.858-2.793 2.793-3.724 7.447-5.585 11.171 4.422 1.164 8.844 3.491 13.265 3.258 8.378-0.465 16.756-1.862 25.135-3.491 4.189-0.931 8.145-3.025 14.429-5.12-11.404-7.68-9.076-15.593-5.585-24.436 8.145-20.713 15.825-41.891 23.738-62.604-15.825-0.233-31.185-0.233-46.778-0.233z" />
<glyph unicode="&#xe903;" horiz-adv-x="996" d="M381.673-66.327c0 3.258-0.931 7.215 0.465 10.007 6.284 12.8 13.033 25.367 20.015 37.702 3.956 6.982 7.68 6.982 12.335-0.233 10.24-16.058 21.411-31.651 32.349-47.476-21.644 0-43.52 0-65.164 0z" />
<glyph unicode="&#xe904;" horiz-adv-x="996" d="M277.644 508.975c-1.396-2.793-3.025-5.585-4.655-8.378-1.164 0-2.327 0-3.724 0-0.465 4.422-2.327 9.542-0.931 13.498 5.818 16.058 17.687 21.876 34.676 19.316 22.807-3.724 45.847-6.051 68.422-10.705 13.731-2.793 27.462-7.68 40.029-13.731 11.869-5.818 11.404-11.869 2.56-21.411-7.215-7.913-12.567-17.455-19.549-25.6-3.258-3.956-8.145-9.542-12.335-9.542-20.713 0.465-44.684-7.68-55.855 18.385-9.309-4.887-17.687-9.542-26.065-13.964-0.931 1.164-1.629 2.56-2.56 3.724 3.025 12.8 16.524 15.593 25.6 22.575-0.698 0.931-1.396 1.862-1.862 2.793-9.309-5.818-18.618-11.636-28.858-18.153-1.629 9.542-0.233 16.524 8.611 21.411 3.258 1.862 5.353 5.585 7.913 8.611-3.491 1.862-6.516 4.422-10.24 5.585-6.516 2.327-13.731 3.724-21.178 5.585z" />
<glyph unicode="&#xe905;" horiz-adv-x="996" d="M168.029 16.524c24.204-2.327 36.771 10.705 42.589 32.582 10.007-2.793 18.153-7.913 17.222-16.756-0.698-6.051-7.68-12.8-13.498-16.524-14.662-9.076-30.487-5.12-46.313 0.698z" />
<glyph unicode="&#xe906;" horiz-adv-x="996" d="M154.531 136.611c15.127 0 30.255 0 45.149 0 0-1.396 0-2.793 0-4.189-15.36-1.164-30.487-6.284-45.149 4.189z" />
<glyph unicode="&#xe907;" horiz-adv-x="996" d="M235.055 187.113c11.869-2.56 23.040 0 30.953-10.24-15.593-7.215-21.876-5.353-30.953 10.24z" />
<glyph unicode="&#xe908;" horiz-adv-x="996" d="M101.469 89.367c-7.447-3.025-11.869-4.655-16.291-6.516-2.095 6.051-4.189 12.102-6.284 18.153 1.396 0.698 2.56 1.629 3.956 2.327 5.353-3.956 10.473-7.913 18.618-13.964z" />
<glyph unicode="&#xe909;" horiz-adv-x="996" d="M583.913 371.433c-2.327-8.844-3.724-14.895-5.353-20.713-7.913-1.164-17.222-3.491-26.531-3.258-3.491 0-8.611 4.422-10.473 8.145-7.447 14.196-11.636 30.022-3.956 44.451 3.491 6.749 14.196 13.731 21.411 13.731 9.775-0.233 20.015-6.051 28.625-11.869 3.724-2.56 5.818-10.705-2.327-15.36-8.611-5.12-4.422-11.404-1.396-15.127z" />
<glyph unicode="&#xe90a;" horiz-adv-x="996" d="M605.324-16.756c-8.611-13.498-15.825-27.462-25.6-39.564-8.145-10.007-16.989-6.516-21.411 6.284-2.793 8.611-8.611 16.058-10.938 24.669-2.327 8.378-1.862 17.687-2.56 26.531 8.378-1.629 16.756-2.56 24.902-5.12 11.636-3.258 22.807-7.913 35.607-12.8z" />
<glyph unicode="&#xe90b;" horiz-adv-x="996" d="M369.571 58.88c0.698 9.309 0.233 16.524 1.862 23.040 0.931 3.724 5.12 7.913 8.844 9.076 1.862 0.698 6.982-3.724 8.611-6.982 10.24-19.782 3.258-38.865-3.491-57.716-0.465-1.629-4.887-3.724-6.284-3.025-2.793 1.396-6.051 4.189-6.516 6.982-1.629 10.007-2.095 20.48-3.025 28.625z" />
<glyph unicode="&#xe90c;" horiz-adv-x="996" d="M453.353 64.233c14.429-13.498 18.851-25.833 15.36-40.495-7.447 5.585-15.825 26.764-15.36 40.495z" />
<glyph unicode="&#xe90d;" horiz-adv-x="996" d="M634.182 313.018c2.095 14.662 3.956 29.324 6.051 43.985 1.629-0.233 3.258-0.465 4.887-0.698-1.862-14.662-3.491-29.324-5.353-43.985-1.862 0-3.724 0.233-5.585 0.698z" />
<glyph unicode="&#xe90e;" horiz-adv-x="996" d="M546.909 455.68c-5.12-1.862-10.24-3.724-15.36-5.818-0.698 0.931-1.396 1.629-2.095 2.56 2.793 3.956 5.353 8.378 8.844 11.171 1.164 0.931 5.818-2.793 9.076-4.422 0-1.164-0.233-2.327-0.465-3.491z" />
<glyph unicode="&#xe90f;" horiz-adv-x="996" d="M660.48 441.251c-1.164-10.24-2.327-20.48-3.491-30.487-1.164 0-2.327 0.233-3.491 0.233 0.465 10.24 1.164 20.713 1.629 30.953 1.862-0.233 3.491-0.465 5.353-0.698z" />
<glyph unicode="&#xea91;" glyph-name="facebook2" d="M928 960h-832c-52.8 0-96-43.2-96-96v-832c0-52.8 43.2-96 96-96h416v448h-128v128h128v64c0 105.8 86.2 192 192 192h128v-128h-128c-35.2 0-64-28.8-64-64v-64h192l-32-128h-160v-448h288c52.8 0 96 43.2 96 96v832c0 52.8-43.2 96-96 96z" />
<glyph unicode="&#xeaad;" glyph-name="steam2" d="M303.922 123.99c27.144 0 53.786 13.136 69.972 37.416 25.734 38.602 15.302 90.754-23.298 116.488l-66.074 44.048c11.308 3.080 23.194 4.756 35.478 4.756 74.392 0 134.696-60.304 134.696-134.698s-60.306-134.698-134.698-134.698c-72.404 0-131.444 57.132-134.548 128.774l71.954-47.968c14.322-9.548 30.506-14.118 46.518-14.118zM853.34 960c93.876 0 170.66-76.812 170.66-170.688v-682.628c0-93.936-76.784-170.684-170.66-170.684h-682.652c-93.876 0-170.688 76.75-170.688 170.682v203.028l121.334-80.888c-11.652-63.174 6.938-130.83 55.798-179.69 78.904-78.904 206.83-78.904 285.736 0 48.468 48.466 67.15 115.43 56.076 178.166l249.056 222.988c46.248 6.638 90.816 27.744 126.394 63.322 87.476 87.476 87.476 229.306 0 316.784-87.48 87.478-229.308 87.478-316.786 0-35.578-35.578-56.684-80.146-63.322-126.392v0l-204.694-310.23c-31.848-1.632-63.378-10.764-91.726-27.392l-217.866 145.244v277.69c0 93.876 76.81 170.688 170.686 170.688h682.654zM896 672c0 88.366-71.634 160-160 160s-160-71.634-160-160 71.634-160 160-160 160 71.634 160 160zM640 672c0 53.020 42.98 96 96 96s96-42.98 96-96-42.98-96-96-96-96 42.98-96 96z" />
<glyph unicode="&#xeac5;" glyph-name="skype" d="M425.6 922.6c-1.6 1-3.4 1.8-5 2.6-1.8-0.4-3.4-0.6-5.2-1l10.2-1.6zM36.8 539c-0.4-1.8-0.6-3.6-0.8-5.2 1-1.6 1.6-3.2 2.6-4.8l-1.8 10zM986.8 357.4c0.4 1.8 0.6 3.6 1 5.4-1 1.6-1.6 3.2-2.6 4.8l1.6-10.2zM592-23c1.6-1 3.4-1.8 5-2.6 1.8 0.4 3.6 0.6 5.4 0.8l-10.4 1.8zM987.8 362.8c-0.4-1.8-0.6-3.6-1-5.4l-1.8 10.4c1-1.8 1.8-3.4 2.8-5 5.2 28.8 8 58.2 8 87.6 0 65.2-12.8 128.6-38 188.2-24.4 57.6-59.2 109.4-103.6 153.8s-96.2 79.2-153.6 103.6c-59.6 25.2-123 38-188.2 38-30.8 0-61.6-2.8-91.6-8.6 0 0-0.2 0-0.2 0 1.6-0.8 3.4-1.6 5-2.6l-10.2 1.6c1.8 0.4 3.4 0.6 5.2 1-41.2 21.8-87.4 33.6-134.2 33.6-76.4 0-148.4-29.8-202.4-83.8s-83.8-126-83.8-202.4c0-48.6 12.6-96.6 36-138.8 0.4 1.8 0.6 3.6 0.8 5.2l1.8-10.2c-1 1.6-1.8 3.2-2.6 4.8-4.8-27.4-7.2-55.4-7.2-83.4 0-65.2 12.8-128.6 38-188.2 24.4-57.6 59.2-109.2 103.6-153.6s96.2-79.2 153.8-103.6c59.6-25.2 123-38 188.2-38 28.4 0 56.8 2.6 84.6 7.6-1.6 1-3.2 1.8-5 2.6l10.4-1.8c-1.8-0.4-3.6-0.6-5.4-0.8 42.8-24.2 91.4-37.2 140.8-37.2 76.4 0 148.4 29.8 202.4 83.8s83.8 126 83.8 202.4c-0.2 48.6-12.8 96.6-36.4 139.2zM514.2 154.2c-171.8 0-248.6 84.4-248.6 147.8 0 32.4 24 55.2 57 55.2 73.6 0 54.4-105.6 191.6-105.6 70.2 0 109 38.2 109 77.2 0 23.4-11.6 49.4-57.8 60.8l-152.8 38.2c-123 30.8-145.4 97.4-145.4 160 0 129.8 122.2 178.6 237 178.6 105.8 0 230.4-58.4 230.4-136.4 0-33.4-29-52.8-62-52.8-62.8 0-51.2 86.8-177.6 86.8-62.8 0-97.4-28.4-97.4-69s49.6-53.6 92.6-63.4l113.2-25.2c123.8-27.6 155.2-100 155.2-168 0-105.4-81-184.2-244.4-184.2z" />
<glyph unicode="&#xead8;" glyph-name="paypal" d="M930 651.4c-47.8-212.2-195.4-324.2-428-324.2h-77.4l-53.8-341.6h-64.8l-3.4-22c-2.2-14.6 9-27.6 23.6-27.6h165.6c19.6 0 36.2 14.2 39.4 33.6l1.6 8.4 31.2 197.8 2 10.8c3 19.4 19.8 33.6 39.4 33.6h24.6c160.4 0 286 65.2 322.8 253.6 13.8 71.6 8.6 132.4-22.8 177.6zM831 882.8c-47.4 54-133.2 77.2-242.8 77.2h-318.2c-22.4 0-41.6-16.2-45-38.4l-132.6-840.4c-2.6-16.6 10.2-31.6 27-31.6h196.6l49.4 313-1.6-9.8c3.4 22.2 22.4 38.4 44.8 38.4h93.4c183.4 0 327 74.4 369 290 1.2 6.4 2.4 12.6 3.2 18.6 12.4 79.6 0 134-43.2 183z" />
</font>
</defs>
</svg>
